<svg aria-hidden="true" style="position: absolute; width: 0; height: 0; overflow: hidden;" version="1.1" xmlns="http://www.w3.org/2000/svg" xmlns:xlink="http://www.w3.org/1999/xlink">
<defs>
<symbol id="burger" viewBox="0 0 76 32">
<path fill="#504949" style="fill: var(--color1, #504949)" d="M0 0h76.19v1.524h-76.19v-1.524z"></path>
<path fill="#504949" style="fill: var(--color1, #504949)" d="M0 15.238h76.19v1.524h-76.19v-1.524z"></path>
<path fill="#504949" style="fill: var(--color1, #504949)" d="M0 30.476h76.19v1.524h-76.19v-1.524z"></path>
</symbol>
<symbol id="icon-Group-5" viewBox="0 0 32 32">
<path fill="#fbf5f5" style="fill: var(--color1, #fbf5f5)" d="M22.899 0h-14.4c-4.687 0-8.499 3.813-8.499 8.499v14.4c0 4.686 3.813 8.499 8.499 8.499h14.4c4.686 0 8.499-3.813 8.499-8.499v-14.4c0-4.687-3.813-8.499-8.499-8.499v0zM29.558 22.899c0 3.671-2.987 6.658-6.659 6.658h-14.4c-3.672 0-6.659-2.987-6.659-6.658v-14.4c0-3.672 2.987-6.659 6.659-6.659h14.4c3.671 0 6.658 2.987 6.658 6.659v14.4z"></path>
<path fill="#fbf5f5" style="fill: var(--color1, #fbf5f5)" d="M15.699 7.114c-4.734 0-8.585 3.851-8.585 8.585s3.851 8.585 8.585 8.585c4.734 0 8.585-3.851 8.585-8.585s-3.851-8.585-8.585-8.585zM15.699 22.444c-3.719 0-6.745-3.026-6.745-6.745s3.026-6.745 6.745-6.745c3.719 0 6.745 3.026 6.745 6.745s-3.026 6.745-6.745 6.745z"></path>
<path fill="#fbf5f5" style="fill: var(--color1, #fbf5f5)" d="M24.489 4.065c-1.399 0-2.537 1.138-2.537 2.537s1.138 2.537 2.537 2.537c1.399 0 2.537-1.138 2.537-2.537s-1.138-2.537-2.537-2.537zM24.489 7.298c-0.384 0-0.696-0.312-0.696-0.696s0.312-0.696 0.696-0.696c0.384 0 0.696 0.312 0.696 0.696s-0.312 0.696-0.696 0.696z"></path>
</symbol>
<symbol id="icon-Group-4" viewBox="0 0 32 32">
<path fill="#fbf5f5" style="fill: var(--color1, #fbf5f5)" d="M27.541 4.46c-2.876-2.876-6.699-4.46-10.767-4.46-0 0-0.001 0-0.001 0-2.012 0-3.972 0.39-5.827 1.158s-3.516 1.879-4.939 3.302c-2.876 2.876-4.46 6.7-4.46 10.767 0 2.425 0.585 4.836 1.694 6.983l-2.559 7.311c-0.18 0.516-0.053 1.076 0.334 1.463 0.27 0.271 0.626 0.414 0.992 0.414 0.157 0 0.316-0.026 0.47-0.081l7.312-2.559c2.148 1.109 4.558 1.694 6.983 1.694 4.067 0 7.891-1.584 10.767-4.46s4.46-6.7 4.46-10.767c0-4.067-1.584-7.891-4.46-10.767zM26.238 24.691c-2.528 2.528-5.889 3.92-9.464 3.92-2.187 0-4.36-0.541-6.283-1.565-0.349-0.185-0.761-0.217-1.131-0.088l-6.643 2.325 2.325-6.643c0.13-0.371 0.098-0.783-0.088-1.131-1.024-1.923-1.565-4.096-1.565-6.283 0-3.575 1.392-6.936 3.92-9.464s5.889-3.92 9.463-3.921h0.001c3.575 0 6.936 1.392 9.464 3.921s3.921 5.889 3.921 9.464-1.392 6.937-3.921 9.465z"></path>
<path fill="#fbf5f5" style="fill: var(--color1, #fbf5f5)" d="M22.432 16.586c-0.7-0.7-1.84-0.7-2.541 0l-0.766 0.766c-1.902-1.037-3.442-2.576-4.478-4.478l0.766-0.766c0.701-0.7 0.701-1.84 0-2.541l-2.064-2.064c-0.7-0.7-1.84-0.7-2.541 0l-1.651 1.651c-0.946 0.946-0.993 2.572-0.133 4.579 0.747 1.743 2.114 3.658 3.849 5.393s3.651 3.102 5.393 3.849c0.954 0.409 1.821 0.613 2.571 0.613 0.828 0 1.512-0.249 2.009-0.745l1.652-1.652c0.339-0.339 0.526-0.79 0.526-1.27s-0.187-0.931-0.526-1.27l-2.064-2.065zM21.543 21.541c-0.27 0.27-1.1 0.365-2.552-0.257-1.533-0.657-3.243-1.885-4.817-3.459s-2.802-3.284-3.458-4.816c-0.622-1.451-0.527-2.282-0.258-2.552l1.62-1.62 2.001 2.001-0.959 0.959c-0.434 0.434-0.538 1.091-0.26 1.636 1.261 2.472 3.234 4.445 5.706 5.706 0.545 0.278 1.203 0.174 1.637-0.26l0.959-0.959 2.001 2.001-1.62 1.62z"></path>
</symbol>
<symbol id="icon-Vector" viewBox="0 0 36 32">
<path fill="#fbf5f5" style="fill: var(--color1, #fbf5f5)" d="M35.444 0.876c-0.44-0.565-1.098-0.876-1.855-0.876-0.411 0-0.847 0.091-1.295 0.271l-30.473 12.222c-1.617 0.648-1.835 1.621-1.821 2.144s0.284 1.481 1.934 2.032c0.010 0.003 0.020 0.006 0.030 0.009l6.321 1.9 3.418 10.27c0.466 1.4 1.512 2.27 2.731 2.27 0.768 0 1.524-0.338 2.185-0.978l3.91-3.782 5.671 4.797c0.001 0.001 0.001 0.001 0.002 0.001l0.054 0.046c0.005 0.004 0.010 0.008 0.015 0.012 0.63 0.514 1.318 0.785 1.99 0.785h0c1.313 0 2.359-1.021 2.663-2.601l4.993-25.903c0.2-1.040 0.032-1.97-0.474-2.62zM10.399 18.217l12.195-6.546-7.593 8.477c-0.124 0.139-0.213 0.309-0.256 0.494l-1.464 6.231-2.881-8.657zM15.19 28.51c-0.051 0.049-0.101 0.092-0.152 0.132l1.358-5.78 2.471 2.091-3.677 3.557zM33.85 3.056l-4.993 25.903c-0.048 0.248-0.202 0.825-0.596 0.825-0.195 0-0.44-0.112-0.691-0.315l-6.426-5.436c-0.001-0.001-0.002-0.002-0.003-0.002l-3.823-3.235 10.981-12.259c0.352-0.392 0.383-0.994 0.076-1.425s-0.867-0.567-1.323-0.321l-18.061 9.694-6.407-1.926 30.464-12.218c0.257-0.103 0.437-0.125 0.542-0.125 0.064 0 0.179 0.008 0.222 0.063 0.056 0.072 0.127 0.317 0.039 0.777z"></path>
</symbol>
<symbol id="close" viewBox="0 0 32 32">
<path d="M23.733 10.304l-1.504-1.504-5.963 5.963-5.963-5.963-1.504 1.504 5.963 5.963-5.963 5.963 1.504 1.504 5.963-5.963 5.963 5.963 1.504-1.504-5.963-5.963 5.963-5.963z"></path>
</symbol>
</defs>
</svg>
